<svg width="372" height="180" viewBox="0 0 372 180" fill="none" xmlns="http://www.w3.org/2000/svg">
<path d="M0 0H372V180H0V0Z" fill="#D2D2D2"/>
<g clip-path="url(#clip0_510_899)">
<path d="M229.177 121.132L225.513 118.457L214.19 110.192L192.624 94.4509L146.487 60.7733L142.822 58.0983C140.99 56.7608 138.03 56.7608 136.198 58.0983C134.319 59.4358 134.319 61.5964 136.151 62.9339L143.715 68.4554V113.622C143.715 117.394 147.944 120.481 153.112 120.481H214.988L222.553 126.002C224.385 127.34 227.345 127.34 229.177 126.002C231.01 124.665 231.01 122.47 229.177 121.132ZM157.904 110.192C155.931 110.192 154.85 108.546 156.072 107.414L167.77 96.44C168.71 95.5826 170.495 95.5483 171.435 96.4057L181.302 105.082L186.799 99.9038L200.893 110.192H157.904ZM228.285 110.775L157.011 58.7499H218.888C224.056 58.7499 228.285 61.8365 228.285 65.6089V110.775Z" fill="#B1B1B1" fill-opacity="0.72"/>
</g>
<path d="M135.31 82.6021C135.344 82.8855 135.36 83.3688 135.36 84.0521C135.377 84.7188 135.385 85.5188 135.385 86.4521C135.385 87.3855 135.385 88.3688 135.385 89.4021C135.385 90.4355 135.377 91.4605 135.36 92.4771C135.36 93.4938 135.352 94.4188 135.335 95.2521C135.335 96.0855 135.335 96.7688 135.335 97.3021C135.335 97.8188 135.344 98.1105 135.36 98.1771C135.394 98.3105 135.369 98.5271 135.285 98.8271C135.202 99.1105 135.069 99.3855 134.885 99.6521C134.702 99.9021 134.469 100.052 134.185 100.102C133.919 100.169 133.544 100.169 133.06 100.102C132.594 100.052 132.119 99.9271 131.635 99.7271C131.169 99.5105 130.794 99.2021 130.51 98.8021C130.344 98.5688 130.085 98.2355 129.735 97.8021C129.402 97.3521 129.027 96.8688 128.61 96.3521C128.21 95.8188 127.81 95.3105 127.41 94.8271C127.027 94.3271 126.702 93.9021 126.435 93.5521C126.169 93.1855 126.002 92.9605 125.935 92.8771C125.785 92.6438 125.535 92.4105 125.185 92.1771C124.852 91.9271 124.585 91.8355 124.385 91.9021C124.185 91.9688 124.035 92.1771 123.935 92.5271C123.835 92.8605 123.769 93.2188 123.735 93.6021C123.702 93.8521 123.685 94.2355 123.685 94.7521C123.685 95.2521 123.685 95.7688 123.685 96.3021C123.702 96.8355 123.702 97.2688 123.685 97.6021C123.669 98.1855 123.852 98.7438 124.235 99.2771C124.102 99.3605 123.835 99.4938 123.435 99.6771C123.035 99.8438 122.61 99.9938 122.16 100.127C121.71 100.26 121.327 100.319 121.01 100.302C120.477 100.269 120.002 99.9938 119.585 99.4771C119.185 98.9605 118.977 98.3188 118.96 97.5521C118.96 97.4021 118.952 96.9855 118.935 96.3021C118.935 95.6021 118.927 94.7355 118.91 93.7021C118.91 92.6688 118.91 91.5521 118.91 90.3521C118.91 89.1521 118.902 87.9688 118.885 86.8021C118.885 85.6188 118.877 84.5438 118.86 83.5771C118.86 82.5938 118.86 81.8105 118.86 81.2271C118.86 80.6438 118.86 80.3521 118.86 80.3521C119.877 80.3188 120.735 80.3938 121.435 80.5771C122.135 80.7605 122.719 81.0938 123.185 81.5771C123.385 81.7605 123.677 82.0855 124.06 82.5521C124.444 83.0188 124.86 83.5521 125.31 84.1521C125.777 84.7355 126.227 85.3188 126.66 85.9021C127.11 86.4855 127.502 87.0021 127.835 87.4521C128.169 87.8855 128.385 88.1688 128.485 88.3021C128.752 88.6355 129.019 88.9021 129.285 89.1021C129.569 89.2855 129.802 89.3438 129.985 89.2771C130.385 89.1438 130.585 88.5855 130.585 87.6021L130.535 80.3521C130.719 80.3188 131.035 80.3105 131.485 80.3271C131.952 80.3438 132.444 80.4188 132.96 80.5521C133.527 80.6855 134.044 80.9105 134.51 81.2271C134.977 81.5438 135.244 82.0021 135.31 82.6021ZM156.691 89.3521C156.857 90.9021 156.782 92.2771 156.466 93.4771C156.166 94.6771 155.691 95.7188 155.041 96.6021C154.407 97.4688 153.657 98.1855 152.791 98.7521C151.924 99.3021 150.999 99.7188 150.016 100.002C149.049 100.269 148.091 100.402 147.141 100.402C146.191 100.402 145.224 100.277 144.241 100.027C143.257 99.7771 142.324 99.3855 141.441 98.8521C140.574 98.3188 139.807 97.6271 139.141 96.7771C138.491 95.9271 138.007 94.9188 137.691 93.7521C137.374 92.5688 137.299 91.2021 137.466 89.6521C137.599 88.3188 137.932 87.0771 138.466 85.9271C138.999 84.7605 139.691 83.7521 140.541 82.9021C141.391 82.0355 142.366 81.3688 143.466 80.9021C144.566 80.4188 145.741 80.1938 146.991 80.2271C147.074 80.2271 147.199 80.1688 147.366 80.0521C147.532 79.9188 147.757 79.7938 148.041 79.6771C148.324 79.5605 148.666 79.5188 149.066 79.5521C149.816 79.6188 150.607 79.9271 151.441 80.4771C152.274 81.0271 153.066 81.7605 153.816 82.6771C154.566 83.5771 155.199 84.6021 155.716 85.7521C156.232 86.9021 156.557 88.1021 156.691 89.3521ZM147.216 95.7771C147.799 95.7605 148.349 95.6771 148.866 95.5271C149.399 95.3771 149.874 95.1021 150.291 94.7021C150.707 94.3021 151.041 93.7355 151.291 93.0021C151.557 92.2688 151.699 91.3271 151.716 90.1771C151.732 89.3771 151.557 88.6021 151.191 87.8521C150.824 87.1021 150.316 86.4688 149.666 85.9521C149.016 85.4188 148.274 85.1105 147.441 85.0271C146.541 84.9271 145.774 85.0188 145.141 85.3021C144.507 85.5688 143.982 85.9688 143.566 86.5021C143.166 87.0188 142.857 87.6021 142.641 88.2521C142.424 88.9021 142.291 89.5605 142.241 90.2271C142.141 91.3771 142.249 92.3188 142.566 93.0521C142.882 93.7855 143.307 94.3521 143.841 94.7521C144.374 95.1521 144.941 95.4271 145.541 95.5771C146.157 95.7271 146.716 95.7938 147.216 95.7771ZM170.987 100.302C170.271 100.169 169.762 99.6855 169.462 98.8521C169.179 98.0188 169.037 96.9855 169.037 95.7521C169.037 95.6021 169.029 95.2271 169.012 94.6271C169.012 94.0271 169.004 93.2855 168.987 92.4021C168.987 91.5021 168.979 90.5355 168.962 89.5021C168.962 88.4688 168.954 87.4355 168.937 86.4021C168.921 85.3688 168.904 84.4188 168.887 83.5521C168.871 82.6688 168.854 81.9438 168.837 81.3771C168.821 80.8105 168.804 80.4688 168.787 80.3521C169.037 80.3021 169.421 80.2938 169.937 80.3271C170.471 80.3438 171.021 80.4271 171.587 80.5771C172.171 80.7105 172.679 80.9438 173.112 81.2771C173.546 81.5938 173.796 82.0355 173.862 82.6021C173.896 82.8688 173.921 83.3271 173.937 83.9771C173.954 84.6105 173.962 85.3688 173.962 86.2521C173.979 87.1188 173.987 88.0438 173.987 89.0271C173.987 90.0105 173.987 90.9855 173.987 91.9521C173.987 92.9021 173.987 93.7855 173.987 94.6021C173.987 95.4021 173.987 96.0771 173.987 96.6271C174.004 97.1605 174.021 97.4855 174.037 97.6021C174.071 97.9521 174.137 98.2105 174.237 98.3771C174.337 98.5271 174.446 98.7188 174.562 98.9521C174.146 99.4021 173.629 99.7688 173.012 100.052C172.396 100.335 171.721 100.419 170.987 100.302ZM197.801 97.4521C197.818 97.7855 197.859 98.1105 197.926 98.4271C198.009 98.7438 198.109 98.9771 198.226 99.1271C198.076 99.2771 197.843 99.4521 197.526 99.6521C197.226 99.8521 196.876 100.01 196.476 100.127C196.093 100.26 195.684 100.319 195.251 100.302C194.601 100.269 194.076 99.9938 193.676 99.4771C193.293 98.9605 193.093 98.3188 193.076 97.5521C193.076 97.4021 193.076 97.1271 193.076 96.7271C193.076 96.3105 193.076 95.8688 193.076 95.4021C193.076 94.9355 193.076 94.5521 193.076 94.2521C193.076 93.9688 193.001 93.6938 192.851 93.4271C192.718 93.1605 192.559 93.0021 192.376 92.9521C192.126 92.8688 191.918 93.0188 191.751 93.4021C191.718 93.4855 191.609 93.6938 191.426 94.0271C191.243 94.3438 191.034 94.7188 190.801 95.1521C190.584 95.5855 190.376 96.0188 190.176 96.4521C189.993 96.8855 189.868 97.2605 189.801 97.5771C189.734 97.8771 189.776 98.0605 189.926 98.1271C189.859 98.2938 189.734 98.5355 189.551 98.8521C189.384 99.1688 189.101 99.4438 188.701 99.6771C188.318 99.8938 187.768 99.9771 187.051 99.9271C186.668 99.8938 186.176 99.6605 185.576 99.2271C184.976 98.7938 184.401 98.0021 183.851 96.8521C183.334 95.7521 182.909 95.0105 182.576 94.6271C182.259 94.2271 182.026 94.0438 181.876 94.0771C181.743 94.0938 181.634 94.1855 181.551 94.3521C181.484 94.5188 181.418 94.7521 181.351 95.0521C181.318 95.2021 181.301 95.4521 181.301 95.8021C181.301 96.1521 181.318 96.5438 181.351 96.9771C181.384 97.4105 181.443 97.8188 181.526 98.2021C181.626 98.5855 181.751 98.8771 181.901 99.0771C181.768 99.1605 181.526 99.3021 181.176 99.5021C180.843 99.7021 180.459 99.8855 180.026 100.052C179.609 100.202 179.201 100.277 178.801 100.277C178.201 100.26 177.701 100.102 177.301 99.8021C176.901 99.4855 176.659 98.8688 176.576 97.9521C176.559 97.8021 176.551 97.3771 176.551 96.6771C176.551 95.9771 176.551 95.0938 176.551 94.0271C176.551 92.9605 176.551 91.8188 176.551 90.6021C176.551 89.3688 176.551 88.1521 176.551 86.9521C176.551 85.7521 176.551 84.6521 176.551 83.6521C176.568 82.6521 176.576 81.8521 176.576 81.2521C176.576 80.6521 176.576 80.3521 176.576 80.3521C176.759 80.3188 177.068 80.3105 177.501 80.3271C177.934 80.3438 178.409 80.4105 178.926 80.5271C179.443 80.6438 179.918 80.8355 180.351 81.1021C180.784 81.3521 181.084 81.7105 181.251 82.1771C181.251 82.1771 181.326 82.3355 181.476 82.6521C181.643 82.9521 181.859 83.3521 182.126 83.8521C182.393 84.3355 182.676 84.8605 182.976 85.4271C183.293 85.9938 183.593 86.5521 183.876 87.1021C184.176 87.6521 184.434 88.1355 184.651 88.5521C184.884 88.9688 185.043 89.2605 185.126 89.4271C185.409 89.9105 185.676 90.2438 185.926 90.4271C186.193 90.6105 186.476 90.7105 186.776 90.7271C187.393 90.7271 187.984 90.2521 188.551 89.3021C188.634 89.1521 188.801 88.8355 189.051 88.3521C189.301 87.8521 189.593 87.2605 189.926 86.5771C190.259 85.8938 190.601 85.1938 190.951 84.4771C191.318 83.7605 191.651 83.0938 191.951 82.4771C192.251 81.8438 192.493 81.3355 192.676 80.9521C192.876 80.5521 192.976 80.3521 192.976 80.3521C193.093 80.3355 193.259 80.3271 193.476 80.3271C193.709 80.3105 193.959 80.3188 194.226 80.3521C194.693 80.3855 195.184 80.4771 195.701 80.6271C196.234 80.7771 196.693 81.0105 197.076 81.3271C197.476 81.6438 197.701 82.0688 197.751 82.6021C197.784 82.8855 197.809 83.3521 197.826 84.0021C197.843 84.6355 197.851 85.3938 197.851 86.2771C197.851 87.1438 197.851 88.0688 197.851 89.0521C197.851 90.0355 197.843 91.0021 197.826 91.9521C197.826 92.9021 197.818 93.7771 197.801 94.5771C197.801 95.3771 197.801 96.0355 197.801 96.5521C197.801 97.0521 197.801 97.3521 197.801 97.4521ZM215.682 95.3771C215.882 95.8605 216.166 96.3271 216.532 96.7771C216.899 97.2105 217.216 97.5355 217.482 97.7521C217.082 98.5855 216.591 99.1938 216.007 99.5771C215.524 99.8938 215.007 100.077 214.457 100.127C214.157 100.16 213.816 100.135 213.432 100.052C213.049 99.9688 212.649 99.7355 212.232 99.3521C211.832 98.9521 211.432 98.3188 211.032 97.4521C210.916 97.1688 210.657 96.9688 210.257 96.8521C209.857 96.7355 209.432 96.6688 208.982 96.6521C208.532 96.6188 208.166 96.6021 207.882 96.6021C207.599 96.6021 207.249 96.6105 206.832 96.6271C206.432 96.6438 206.066 96.7105 205.732 96.8271C205.399 96.9438 205.199 97.1521 205.132 97.4521C205.066 97.7188 205.057 97.9938 205.107 98.2771C205.157 98.5605 205.266 98.7438 205.432 98.8271C205.149 99.0938 204.866 99.3271 204.582 99.5271C204.316 99.7271 204.041 99.8855 203.757 100.002C203.407 100.152 203.041 100.227 202.657 100.227C202.291 100.227 201.874 100.144 201.407 99.9771C201.191 99.8938 200.966 99.7438 200.732 99.5271C200.499 99.3105 200.341 99.0105 200.257 98.6271C200.174 98.2438 200.241 97.7605 200.457 97.1771C200.474 97.1271 200.557 96.8605 200.707 96.3771C200.857 95.8938 201.049 95.2605 201.282 94.4771C201.532 93.6771 201.799 92.7938 202.082 91.8271C202.382 90.8605 202.682 89.8688 202.982 88.8521C203.299 87.8188 203.599 86.8271 203.882 85.8771C204.182 84.9271 204.449 84.0688 204.682 83.3021C204.916 82.5355 205.099 81.9271 205.232 81.4771C205.366 81.0271 205.432 80.8021 205.432 80.8021C205.582 80.7188 205.857 80.6188 206.257 80.5021C206.674 80.3688 207.116 80.2938 207.582 80.2771C208.099 80.2438 208.599 80.3105 209.082 80.4771C209.582 80.6438 209.966 80.9771 210.232 81.4771C210.349 81.6771 210.524 82.0605 210.757 82.6271C210.991 83.1938 211.266 83.8771 211.582 84.6771C211.899 85.4771 212.232 86.3355 212.582 87.2521C212.932 88.1521 213.274 89.0521 213.607 89.9521C213.957 90.8355 214.274 91.6605 214.557 92.4271C214.841 93.1938 215.082 93.8438 215.282 94.3771C215.482 94.8938 215.616 95.2271 215.682 95.3771ZM207.807 92.1521C208.241 92.1188 208.491 91.9938 208.557 91.7771C208.641 91.5605 208.691 91.3105 208.707 91.0271C208.707 90.8438 208.674 90.6188 208.607 90.3521C208.557 90.0855 208.474 89.8521 208.357 89.6521C208.257 89.4355 208.124 89.3271 207.957 89.3271C207.724 89.3271 207.466 89.4938 207.182 89.8271C206.916 90.1438 206.766 90.4688 206.732 90.8021C206.682 91.1188 206.707 91.4271 206.807 91.7271C206.924 92.0271 207.257 92.1688 207.807 92.1521ZM236.846 88.7021C237.029 88.8855 237.162 89.1605 237.246 89.5271C237.346 89.8771 237.362 90.2688 237.296 90.7021C237.246 91.0688 237.121 91.4438 236.921 91.8271C236.721 92.2105 236.421 92.5438 236.021 92.8271C235.704 93.0438 235.471 93.4021 235.321 93.9021C235.171 94.3855 235.071 94.8771 235.021 95.3771C234.954 95.9438 234.804 96.5271 234.571 97.1271C234.354 97.7271 234.012 98.2605 233.546 98.7271C233.179 99.1605 232.646 99.5605 231.946 99.9271C231.262 100.277 230.329 100.444 229.146 100.427C228.479 100.41 227.696 100.294 226.796 100.077C225.912 99.8605 225.012 99.5105 224.096 99.0271C223.196 98.5271 222.371 97.8605 221.621 97.0271C220.871 96.1938 220.296 95.1605 219.896 93.9271C219.496 92.6938 219.379 91.2271 219.546 89.5271C219.696 87.9105 220.096 86.5105 220.746 85.3271C221.412 84.1438 222.237 83.1688 223.221 82.4021C224.204 81.6355 225.262 81.0605 226.396 80.6771C227.529 80.2771 228.654 80.0688 229.771 80.0521C230.754 80.0188 231.612 80.1688 232.346 80.5021C233.079 80.8355 233.662 81.2688 234.096 81.8021C234.546 82.3188 234.846 82.8771 234.996 83.4771C235.162 84.0605 235.162 84.5938 234.996 85.0771C234.862 85.4938 234.671 85.8355 234.421 86.1021C234.187 86.3688 233.929 86.5521 233.646 86.6521C233.296 86.7855 232.937 86.8105 232.571 86.7271C232.204 86.6271 231.887 86.4188 231.621 86.1021C231.904 85.8855 231.987 85.6521 231.871 85.4021C231.771 85.1355 231.512 84.9188 231.096 84.7521C230.679 84.5688 230.146 84.5021 229.496 84.5521C228.996 84.5855 228.462 84.7271 227.896 84.9771C227.346 85.2271 226.821 85.5771 226.321 86.0271C225.837 86.4771 225.437 87.0271 225.121 87.6771C224.804 88.3271 224.629 89.0688 224.596 89.9021C224.546 91.0521 224.646 91.9855 224.896 92.7021C225.162 93.4188 225.512 93.9605 225.946 94.3271C226.379 94.6938 226.846 94.9438 227.346 95.0771C227.846 95.2105 228.329 95.2771 228.796 95.2771C229.196 95.2771 229.521 95.1521 229.771 94.9021C230.037 94.6521 230.146 94.3521 230.096 94.0021C230.046 93.6521 229.746 93.3188 229.196 93.0021C228.679 92.7188 228.346 92.4438 228.196 92.1771C228.046 91.9105 227.921 91.6438 227.821 91.3771C227.654 90.9438 227.512 90.4771 227.396 89.9771C227.279 89.4771 227.229 89.0521 227.246 88.7021C227.379 88.7521 227.721 88.8355 228.271 88.9521C228.821 89.0521 229.454 89.1438 230.171 89.2271C230.904 89.3105 231.596 89.3605 232.246 89.3771C232.929 89.3771 233.587 89.3605 234.221 89.3271C234.854 89.2771 235.404 89.2021 235.871 89.1021C236.354 89.0021 236.679 88.8688 236.846 88.7021ZM249.719 95.5271C249.953 95.4938 250.244 95.4521 250.594 95.4021C250.961 95.3521 251.303 95.2938 251.619 95.2271C251.953 95.1438 252.178 95.0521 252.294 94.9521C252.511 95.1355 252.653 95.5105 252.719 96.0771C252.803 96.6271 252.778 97.2021 252.644 97.8021C252.544 98.3188 252.369 98.8021 252.119 99.2521C251.869 99.7021 251.511 99.9771 251.044 100.077C250.644 100.16 250.186 100.21 249.669 100.227C249.153 100.244 248.628 100.244 248.094 100.227C247.561 100.21 247.069 100.194 246.619 100.177C246.186 100.16 245.853 100.152 245.619 100.152C245.386 100.152 245.019 100.152 244.519 100.152C244.036 100.169 243.611 100.185 243.244 100.202C242.811 100.252 242.336 100.285 241.819 100.302C241.303 100.319 240.828 100.302 240.394 100.252C239.961 100.202 239.644 100.119 239.444 100.002C239.561 99.7688 239.661 99.4188 239.744 98.9521C239.828 98.4688 239.894 97.9438 239.944 97.3771C239.994 96.8105 240.011 96.2688 239.994 95.7521L239.944 91.1771V89.0521C239.944 88.4521 239.936 87.9521 239.919 87.5521C239.919 87.1521 239.919 86.9355 239.919 86.9021C239.919 86.3521 239.894 85.7605 239.844 85.1271C239.794 84.4938 239.736 83.8938 239.669 83.3271C239.603 82.7438 239.544 82.2688 239.494 81.9021C239.428 81.6188 239.378 81.3438 239.344 81.0771C239.311 80.7938 239.303 80.5438 239.319 80.3271C239.436 80.3771 239.753 80.4271 240.269 80.4771C240.803 80.5105 241.419 80.5438 242.119 80.5771C242.169 80.5771 242.411 80.5855 242.844 80.6021C243.278 80.6021 243.811 80.6105 244.444 80.6271C245.094 80.6438 245.761 80.6605 246.444 80.6771C247.144 80.6771 247.778 80.6771 248.344 80.6771C248.911 80.6771 249.328 80.6688 249.594 80.6521C250.278 80.6188 250.853 80.5688 251.319 80.5021C251.803 80.4188 252.128 80.3105 252.294 80.1771C252.494 80.3438 252.678 80.6605 252.844 81.1271C253.028 81.5771 253.128 82.0521 253.144 82.5521C253.144 83.0355 253.028 83.4938 252.794 83.9271C252.578 84.3438 252.178 84.6271 251.594 84.7771C251.378 84.8271 251.036 84.8688 250.569 84.9021C250.119 84.9355 249.678 84.9605 249.244 84.9771C248.828 84.9771 248.528 84.9688 248.344 84.9521C247.828 84.9021 247.294 84.9605 246.744 85.1271C246.194 85.2771 245.728 85.4855 245.344 85.7521C244.961 86.0021 244.761 86.2771 244.744 86.5771C244.728 86.8605 244.844 87.0938 245.094 87.2771C245.344 87.4605 245.669 87.6105 246.069 87.7271C246.486 87.8271 246.928 87.8938 247.394 87.9271C247.861 87.9605 248.303 87.9688 248.719 87.9521C249.053 87.9188 249.436 87.8605 249.869 87.7771C250.303 87.6938 250.569 87.6105 250.669 87.5271C250.886 87.7105 251.036 88.0521 251.119 88.5521C251.219 89.0521 251.219 89.5688 251.119 90.1021C251.036 90.5355 250.869 90.9355 250.619 91.3021C250.369 91.6688 250.019 91.9188 249.569 92.0521C249.219 92.1521 248.919 92.2188 248.669 92.2521C248.419 92.2688 248.294 92.2771 248.294 92.2771C247.311 92.2771 246.478 92.4521 245.794 92.8021C245.128 93.1355 244.761 93.5355 244.694 94.0021C244.628 94.4021 244.711 94.7688 244.944 95.1021C245.194 95.4355 245.553 95.6188 246.019 95.6521C246.336 95.6688 246.736 95.6771 247.219 95.6771C247.719 95.6605 248.203 95.6438 248.669 95.6271C249.153 95.5938 249.503 95.5605 249.719 95.5271Z" fill="#656565"/>
<defs>
<clipPath id="clip0_510_899">
<rect width="112.759" height="82.3077" fill="white" transform="translate(129.62 48.4614)"/>
</clipPath>
</defs>
</svg>
